<svg width="64" height="64" viewBox="0 0 64 64" fill="none" xmlns="http://www.w3.org/2000/svg">
<rect width="64" height="64" rx="16" fill="#FFC53D"/>
<path opacity="0.2" d="M29.6459 43.0187C31.5641 43.0187 32.3314 20 34.2496 20C34.6566 20 35.047 21.2126 35.3347 23.371C35.6225 25.5294 35.7842 28.4569 35.7842 31.5093C35.7842 34.5618 35.6225 37.4892 35.3347 39.6477C35.047 41.8061 34.6566 43.0187 34.2496 43.0187C32.3314 43.0187 31.5641 20 29.6459 20C29.2389 20 28.8486 21.2126 28.5608 23.371C28.273 25.5294 28.1113 28.4569 28.1113 31.5093C28.1113 34.5618 28.273 37.4892 28.5608 39.6477C28.8486 41.8061 29.2389 43.0187 29.6459 43.0187Z" stroke="black" stroke-width="1.6" stroke-linecap="round" stroke-linejoin="round"/>
<path opacity="0.4" d="M24.6249 43.0187C30.7284 43.0187 33.1697 20 39.2732 20C40.5682 20 41.8101 21.2126 42.7258 23.371C43.6415 25.5294 44.1559 28.4569 44.1559 31.5093C44.1559 34.5618 43.6415 37.4892 42.7258 39.6477C41.8101 41.8061 40.5682 43.0187 39.2732 43.0187C33.1697 43.0187 30.7284 20 24.6249 20C23.3299 20 22.088 21.2126 21.1723 23.371C20.2566 25.5294 19.7422 28.4569 19.7422 31.5093C19.7422 34.5618 20.2566 37.4892 21.1723 39.6477C22.088 41.8061 23.3299 43.0187 24.6249 43.0187Z" stroke="black" stroke-width="1.6" stroke-linecap="round" stroke-linejoin="round"/>
<path opacity="0.6" d="M19.602 43.0187C29.8907 43.0187 34.0061 20 44.2948 20C46.4777 20 48.5713 21.2126 50.1149 23.371C51.6585 25.5294 52.5257 28.4569 52.5257 31.5093C52.5257 34.5618 51.6585 37.4892 50.1149 39.6477C48.5713 41.8061 46.4777 43.0187 44.2948 43.0187C34.0061 43.0187 29.8907 20 19.602 20C17.419 20 15.3255 21.2126 13.7819 23.371C12.2383 25.5294 11.3711 28.4569 11.3711 31.5093C11.3711 34.5618 12.2383 37.4892 13.7819 39.6477C15.3255 41.8061 17.419 43.0187 19.602 43.0187Z" stroke="black" stroke-width="1.6" stroke-linecap="round" stroke-linejoin="round"/>
<path opacity="0.8" d="M14.5791 43.0187C29.0529 43.0187 34.8425 20 49.3163 20C52.3873 20 55.3325 21.2126 57.504 23.371C59.6755 25.5294 60.8954 28.4569 60.8954 31.5093C60.8954 34.5618 59.6755 37.4892 57.504 39.6477C55.3325 41.8061 52.3873 43.0187 49.3163 43.0187C34.8425 43.0187 29.0529 20 14.5791 20C11.5081 20 8.56294 21.2126 6.39144 23.371C4.21994 25.5294 3 28.4569 3 31.5093C3 34.5618 4.21994 37.4892 6.39144 39.6477C8.56294 41.8061 11.5081 43.0187 14.5791 43.0187Z" stroke="black" stroke-width="1.6" stroke-linecap="round" stroke-linejoin="round"/>
</svg>
